<svg width="61" height="60" viewBox="0 0 61 60" fill="none" xmlns="http://www.w3.org/2000/svg">
<path d="M39.7167 43.4167C39.5335 43.4167 39.3527 43.3583 39.201 43.2487L30.5 36.916L21.799 43.251C21.533 43.4423 21.1807 43.4727 20.8867 43.321C20.595 43.1728 20.4083 42.8718 20.4083 42.5428V22.5333C20.4083 21.0867 21.5867 19.9083 23.0333 19.9083H37.9643C39.411 19.9083 40.5893 21.0867 40.5893 22.5333V42.5417C40.5893 42.8707 40.405 43.1717 40.111 43.321C39.9873 43.3852 39.8508 43.4167 39.7143 43.4167H39.7167ZM30.5 34.9583C30.6808 34.9583 30.8617 35.0143 31.0133 35.1263L38.8417 40.8232V22.5333C38.8417 22.0527 38.4485 21.6583 37.9667 21.6583H23.0333C22.5515 21.6583 22.1583 22.0527 22.1583 22.5333V40.8232L29.9867 35.1263C30.1383 35.0143 30.3192 34.9583 30.5 34.9583Z" fill="#F7F9F9"/>
</svg>
