<svg width="61" height="60" viewBox="0 0 61 60" fill="none" xmlns="http://www.w3.org/2000/svg">
<path d="M41 24.5598H36.415L36.849 19.5758C36.891 19.0952 36.534 18.6717 36.0533 18.6285C35.5668 18.5935 35.148 18.9435 35.106 19.4253L34.6592 24.5587H27.2858L27.7175 19.577C27.7607 19.0952 27.4025 18.6717 26.9242 18.6285C26.4342 18.5935 26.0177 18.9435 25.9757 19.4253L25.53 24.5587H20.9123C20.4293 24.5587 20.0373 24.9518 20.0373 25.4337C20.0373 25.9155 20.4293 26.3087 20.9123 26.3087H25.3783L24.7367 33.6902H20C19.517 33.6902 19.125 34.0822 19.125 34.5652C19.125 35.0482 19.517 35.4402 20 35.4402H24.585L24.151 40.4242C24.109 40.9048 24.466 41.3283 24.9467 41.3715L25.0237 41.375C25.4728 41.375 25.8543 41.0308 25.894 40.5747L26.3408 35.4413H33.7142L33.2825 40.423C33.2405 40.9048 33.5975 41.3283 34.0782 41.3715L34.1552 41.375C34.6043 41.375 34.9858 41.0308 35.0255 40.5747L35.4712 35.4413H40.0877C40.5695 35.4413 40.9627 35.0482 40.9627 34.5663C40.9627 34.0845 40.5695 33.6913 40.0877 33.6913H35.6217L36.2633 26.3098H41C41.483 26.3098 41.875 25.9178 41.875 25.4348C41.875 24.9518 41.483 24.5598 41 24.5598ZM33.8658 33.6902H26.4925L27.1342 26.3098H34.5075L33.8658 33.6902Z" fill="#0F1419"/>
</svg>
