<svg width="61" height="60" viewBox="0 0 61 60" fill="none" xmlns="http://www.w3.org/2000/svg">
<path d="M42.8433 24.575L31.0542 18.2132C30.7077 18.0265 30.2912 18.0265 29.9458 18.2132L18.1625 24.575C17.5955 24.883 17.3843 25.59 17.69 26.157C17.9 26.5478 18.3025 26.7695 18.7167 26.7695C18.9033 26.7695 19.0947 26.7252 19.2708 26.6295L20.1272 26.1675L21.9822 39.2925C22.2342 40.7088 23.5105 41.6982 25.0855 41.6982H35.9145C37.4895 41.6982 38.7658 40.7088 39.0202 39.2622L40.8728 26.1663L41.7327 26.6307C42.2985 26.9375 43.0067 26.7263 43.3123 26.1593C43.6192 25.5923 43.4057 24.8842 42.841 24.5785L42.8433 24.575ZM30.5 34.0075C28.4058 34.0075 26.7083 32.31 26.7083 30.2158C26.7083 28.1217 28.4058 26.4242 30.5 26.4242C32.5942 26.4242 34.2917 28.1217 34.2917 30.2158C34.2917 32.31 32.5942 34.0075 30.5 34.0075Z" fill="#F7F9F9"/>
</svg>
