<svg width="61" height="60" viewBox="0 0 61 60" fill="none" xmlns="http://www.w3.org/2000/svg">
<path d="M39.5416 41.6667H21.4583C20.0116 41.6667 18.8333 40.4883 18.8333 39.0417V20.9583C18.8333 19.5117 20.0116 18.3333 21.4583 18.3333H39.5416C40.9883 18.3333 42.1666 19.5117 42.1666 20.9583V39.0417C42.1666 40.4883 40.9883 41.6667 39.5416 41.6667ZM21.4583 20.0833C20.9753 20.0833 20.5833 20.4765 20.5833 20.9583V39.0417C20.5833 39.5235 20.9753 39.9167 21.4583 39.9167H39.5416C40.0246 39.9167 40.4166 39.5235 40.4166 39.0417V20.9583C40.4166 20.4765 40.0246 20.0833 39.5416 20.0833H21.4583Z" fill="#F7F9F9"/>
<path d="M36.3333 26.08H24.6666C24.1836 26.08 23.7916 25.6869 23.7916 25.205C23.7916 24.7232 24.1836 24.33 24.6666 24.33H36.3333C36.8163 24.33 37.2083 24.7209 37.2083 25.205C37.2083 25.6892 36.8163 26.08 36.3333 26.08ZM36.3333 30.875H24.6666C24.1836 30.875 23.7916 30.483 23.7916 30C23.7916 29.517 24.1836 29.125 24.6666 29.125H36.3333C36.8163 29.125 37.2083 29.517 37.2083 30C37.2083 30.483 36.8163 30.875 36.3333 30.875ZM30.5 35.67H24.6666C24.1836 35.67 23.7916 35.2792 23.7916 34.795C23.7916 34.3109 24.1836 33.92 24.6666 33.92H30.5C30.983 33.92 31.375 34.3132 31.375 34.795C31.375 35.2769 30.983 35.67 30.5 35.67Z" fill="#F7F9F9"/>
</svg>
