<svg width="35" height="36" viewBox="0 0 35 36" fill="none" xmlns="http://www.w3.org/2000/svg">
<g clip-path="url(#clip0_102_23)">
<path d="M29.6015 35.4081C32.0566 32.9963 33.6993 29.9808 34.1679 27.025C34.6369 24.069 33.8935 21.4148 32.1014 19.6462L22.8445 28.7395L29.6015 35.4081Z" fill="#06D6A0"/>
<path d="M5.39861 35.4602C2.94355 33.0484 1.30088 30.033 0.832068 27.077C0.363123 24.1211 1.1066 21.4669 2.89871 19.6982L12.1557 28.7914L5.39861 35.4602Z" fill="#FFBE0B"/>
<path d="M8.78989e-06 9.66044C0.00201557 11.3512 0.342226 13.025 1.00122 14.5863C1.6602 16.1476 2.62507 17.5658 3.84071 18.7599L3.84085 18.7596L13.0967 27.8517C15.546 25.4343 16.9197 22.158 16.9157 18.7434C16.9116 15.3287 15.53 12.0556 13.075 9.64389L13.0748 9.64415L3.81897 0.552231C1.36971 2.96952 -0.00400931 6.24578 8.78989e-06 9.66031V9.66044Z" fill="#FF0075"/>
<path d="M35 9.60821C34.998 11.299 34.6578 12.9728 33.9988 14.5341C33.3398 16.0954 32.375 17.5137 31.1593 18.7078L31.159 18.7074L21.9033 27.7995C19.4541 25.3821 18.0804 22.1058 18.0845 18.6912C18.0885 15.2767 19.4699 12.0035 21.9249 9.59179L21.9252 9.59192L31.181 0.5C33.6303 2.91733 35.004 6.19364 35 9.60821Z" fill="#0076FF"/>
</g>
<defs>
<clipPath id="clip0_102_23">
<rect width="35" height="35" fill="white" transform="translate(0 0.5)"/>
</clipPath>
</defs>
</svg>
