<svg width="61" height="60" viewBox="0 0 61 60" fill="none" xmlns="http://www.w3.org/2000/svg">
<path d="M38.9583 19.521H22.0416C20.2718 19.521 18.8333 20.9607 18.8333 22.7317V37.3092C18.8333 39.0802 20.2718 40.521 22.0416 40.521H38.9583C40.7281 40.521 42.1666 39.0802 42.1666 37.3092V22.7317C42.1666 20.9607 40.7281 19.521 38.9583 19.521ZM22.0416 21.271H38.9583C39.7633 21.271 40.4166 21.9243 40.4166 22.7293V23.5623L31.025 29.8238C30.7065 30.0338 30.2946 30.0362 29.975 29.8215L20.5833 23.5623V22.7293C20.5833 21.9243 21.2366 21.271 22.0416 21.271ZM38.9583 38.7687H22.0416C21.2366 38.7687 20.5833 38.1153 20.5833 37.3103V25.6133L29.03 31.2483C29.4768 31.547 29.989 31.6963 30.5 31.6963C31.0133 31.6963 31.5231 31.547 31.97 31.2495L40.4166 25.6145V37.3068C40.4166 38.1118 39.7633 38.7652 38.9583 38.7652V38.7687Z" fill="#F7F9F9"/>
</svg>
