<svg width="61" height="60" viewBox="0 0 61 60" fill="none" xmlns="http://www.w3.org/2000/svg">
<path d="M36.3333 31.75C37.2998 31.75 38.0833 30.9665 38.0833 30C38.0833 29.0335 37.2998 28.25 36.3333 28.25C35.3668 28.25 34.5833 29.0335 34.5833 30C34.5833 30.9665 35.3668 31.75 36.3333 31.75Z" fill="#F7F9F9"/>
<path d="M30.5 31.75C31.4665 31.75 32.25 30.9665 32.25 30C32.25 29.0335 31.4665 28.25 30.5 28.25C29.5335 28.25 28.75 29.0335 28.75 30C28.75 30.9665 29.5335 31.75 30.5 31.75Z" fill="#F7F9F9"/>
<path d="M24.6666 31.75C25.6331 31.75 26.4166 30.9665 26.4166 30C26.4166 29.0335 25.6331 28.25 24.6666 28.25C23.7001 28.25 22.9166 29.0335 22.9166 30C22.9166 30.9665 23.7001 31.75 24.6666 31.75Z" fill="#F7F9F9"/>
<path d="M30.5 42.5417C23.584 42.5417 17.9583 36.916 17.9583 30C17.9583 23.084 23.584 17.4583 30.5 17.4583C37.416 17.4583 43.0416 23.084 43.0416 30C43.0416 36.916 37.416 42.5417 30.5 42.5417ZM30.5 19.2083C24.55 19.2083 19.7083 24.05 19.7083 30C19.7083 35.95 24.55 40.7917 30.5 40.7917C36.45 40.7917 41.2916 35.95 41.2916 30C41.2916 24.05 36.45 19.2083 30.5 19.2083Z" fill="#F7F9F9"/>
</svg>
