<svg width="61" height="60" viewBox="0 0 61 60" fill="none" xmlns="http://www.w3.org/2000/svg">
<path d="M41.8132 35.2127C41.7899 35.194 39.3165 33.2993 39.3597 28.1777C39.383 25.2237 38.4124 22.5987 36.6215 20.7868C35.0174 19.1617 32.845 18.2633 30.5059 18.2517H30.4907C28.1527 18.2633 25.9804 19.1617 24.375 20.788C22.5854 22.5998 21.6124 25.2237 21.638 28.1777C21.6812 33.2293 19.2814 35.1392 19.1857 35.2127C18.8824 35.4378 18.7587 35.831 18.8765 36.1903C18.9955 36.5497 19.3315 36.7912 19.7072 36.7912H25.4472C25.5662 39.4862 27.777 41.6445 30.4989 41.6445C33.2207 41.6445 35.4292 39.4862 35.547 36.7912H41.2894C41.665 36.7912 42.001 36.5508 42.1177 36.1915C42.2379 35.8333 42.1142 35.439 41.8109 35.2138L41.8132 35.2127ZM30.5 39.891C28.7442 39.891 27.315 38.5178 27.2007 36.79H33.7994C33.6827 38.5167 32.2559 39.8933 30.5 39.8933V39.891ZM21.61 35.04C22.4734 33.7193 23.416 31.5073 23.388 28.1613C23.367 25.6413 24.1394 23.5157 25.6199 22.0165C26.895 20.725 28.6299 20.0098 30.5 20.0017C32.3702 20.011 34.1015 20.725 35.3767 22.0177C36.8584 23.5168 37.6319 25.6413 37.6109 28.1625C37.5829 31.5085 38.5267 33.7217 39.39 35.0412H21.61V35.04Z" fill="#F7F9F9"/>
</svg>
