<svg width="61" height="60" viewBox="0 0 61 60" fill="none" xmlns="http://www.w3.org/2000/svg">
<path d="M30.5 29.7853C32.0808 29.7853 33.8507 29.6103 34.98 28.32C35.9297 27.235 36.2377 25.5573 35.9203 23.196C35.477 19.9002 33.4505 17.932 30.5 17.932C27.5495 17.932 25.523 19.9002 25.0797 23.1983C24.7623 25.5573 25.0703 27.235 26.02 28.32C27.1493 29.6115 28.9192 29.7853 30.5 29.7853ZM26.8133 23.4293C27.0023 22.0293 27.7315 19.682 30.5 19.682C33.2685 19.682 33.9977 22.0305 34.1867 23.4293C34.4282 25.2377 34.2532 26.4942 33.6617 27.1685C33.1308 27.7752 32.1847 28.0353 30.5 28.0353C28.8153 28.0353 27.8692 27.7752 27.3383 27.1685C26.7468 26.4942 26.5718 25.2365 26.8133 23.4293ZM40.16 38.442C39.1368 34.3283 35.1643 31.4537 30.5 31.4537C25.8357 31.4537 21.8632 34.3283 20.84 38.442C20.6393 39.2493 20.8073 40.0753 21.3008 40.7053C21.7768 41.312 22.5142 41.662 23.3227 41.662H37.6773C38.4858 41.662 39.2232 41.312 39.6992 40.7053C40.1938 40.0753 40.3607 39.2505 40.1588 38.442H40.16ZM38.3213 39.6273C38.1743 39.814 37.9527 39.9143 37.6773 39.9143H23.3227C23.0485 39.9143 22.8257 39.8152 22.6787 39.6273C22.5188 39.4243 22.4687 39.1467 22.5387 38.8643C23.367 35.5335 26.6418 33.206 30.5 33.206C34.3582 33.206 37.633 35.5323 38.4613 38.8643C38.5313 39.1467 38.4812 39.4243 38.3213 39.6273Z" fill="#F7F9F9"/>
</svg>
